<svg xmlns="http://www.w3.org/2000/svg" version="1.1" xmlns:xlink="http://www.w3.org/1999/xlink" xmlns:svgjs="http://svgjs.dev/svgjs" width="1500" height="696" viewBox="0 0 1500 696"><g transform="matrix(1,0,0,1,-0.9090909090909918,-0.1739492729328731)"><svg viewBox="0 0 396 184" data-background-color="#ffffff" preserveAspectRatio="xMidYMid meet" height="696" width="1500" xmlns="http://www.w3.org/2000/svg" xmlns:xlink="http://www.w3.org/1999/xlink"><g id="tight-bounds" transform="matrix(1,0,0,1,0.2400000000000091,0.04598658939605116)"><svg viewBox="0 0 395.52 183.9080268212079" height="183.9080268212079" width="395.52"><g><svg viewBox="0 0 395.52 183.9080268212079" height="183.9080268212079" width="395.52"><g><svg viewBox="0 0 395.52 183.9080268212079" height="183.9080268212079" width="395.52"><g id="textblocktransform"><svg viewBox="0 0 395.52 183.9080268212079" height="183.9080268212079" width="395.52" id="textblock"><g><svg viewBox="0 0 395.52 183.9080268212079" height="183.9080268212079" width="395.52"><rect width="395.52" height="183.9080268212079" x="0" y="0" opacity="1" fill="#3d9970" data-fill-palette-color="tertiary"></rect><g transform="matrix(1,0,0,1,23.607599999999998,23.607599999999998)"><svg width="348.3048" viewBox="1 -38.01 102.94 41.01" height="136.69282682120792" data-palette-color="#ffffff"><path d="M23.71-8.59L23.71-8.59Q23.71-6.81 23.03-5.25 22.36-3.69 21.19-2.51 20.02-1.34 18.44-0.67 16.87 0 15.09 0L15.09 0 4 0 4-35.01 15.09-35.01Q16.87-35.01 18.44-34.34 20.02-33.67 21.19-32.5 22.36-31.32 23.03-29.75 23.71-28.17 23.71-26.39L23.71-26.39 23.71-8.59ZM20.56-8.59L20.56-26.39Q20.56-27.56 20.12-28.58 19.68-29.59 18.91-30.36 18.14-31.13 17.13-31.57 16.11-32.01 14.94-32.01L14.94-32.01 7.15-32.01 7.15-3 14.94-3Q16.11-3 17.13-3.44 18.14-3.88 18.91-4.64 19.68-5.4 20.12-6.41 20.56-7.42 20.56-8.59L20.56-8.59ZM50.9 0L49.24 0 34.64-25.49 34.35-27 34.35 0 31.2 0 31.2-35.01 32.83-35.01 47.43-9.5 47.75-8.01 47.75-35.01 50.9-35.01 50.9 0ZM74.95 0L58.39 0 58.39-35.01 61.54-35.01 61.54-3 74.95-3 74.95 0ZM100.94 0L97.04 0 83.85-17.5 97.04-35.01 100.94-35.01 87.49-17.5 100.94 0ZM83.1 0L79.95 0 79.95-35.01 83.1-35.01 83.1 0Z" opacity="1" transform="matrix(1,0,0,1,0,0)" fill="#ffffff" class="wordmark-text-0" data-fill-palette-color="quaternary" id="text-0"></path></svg></g></svg></g></svg></g></svg></g></svg></g><defs></defs></svg><rect width="395.52" height="183.9080268212079" fill="none" stroke="none" visibility="hidden"></rect></g></svg></g></svg>